{"title":"Kaneto Shindô -  Postcard (2010)","uid":8240643,"size":1467716132,"categoryP":"video","categoryS":"movies","magnet":"?xt=urn:btih:63be6ee51acead5aa9a52c4467fac44b7ea1d094&amp;dn=Kaneto+Shind%26ocirc%3B+-++Postcard+%282010%29&amp;tr=udp%3A%2F%2Ftracker.openbittorrent.com%3A80&amp;tr=udp%3A%2F%2Fopen.demonii.com%3A1337&amp;tr=udp%3A%2F%2Ftracker.coppersurfer.tk%3A6969&amp;tr=udp%3A%2F%2Fexodus.desync.com%3A6969","seeders":1,"leechers":1,"uploader":"Aaaameida","files":-1,"time":1362951330,"description":"Language: Japanese\n\nSubtitles: English, Spanish and Portuguese\n\n &lt;a href=&quot; http://www.imdb.com/title/tt1641397&quot; rel=&quot;nofollow&quot; target=&quot;_NEW&quot;&gt; http://www.imdb.com/title/tt1641397&lt;/a&gt;\n\nToward the end of World War II, middle-aged soldier Keita is entrusted with a postcard from a comrade who is sure he will die in battle. After the war ends, Keita visits his comrade's wife Yuko and bears witness to the tragic life she has led.\nKaneto Sindo last film,he died on May 29,this year at the age of 100.RIP.\n\nJapanese entry for the Best Foreign Language Film at the 84th Academy Awards\n\n\n\n      Format : AVI\n      Format/Info : Audio Video Interleave\n      File size : 1.37 GiB\n      Duration : 1h 54mn\n      Overall bit rate : 1 703 Kbps\n      Writing application : VirtualDubMod 1.5.4.1 (build 2178/release)\n      Writing library : VirtualDubMod build 2178/release\n   Video #0\n      ID : 0\n      Format : MPEG-4 Visual\n      Format profile : AdvancedSimple@L5\n      Format settings, BVOP : Yes\n      Format settings, QPel : No\n      Format settings, GMC : No warppoints\n      Format settings, Matrix : Custom\n      Codec ID : XVID\n      Codec ID/Hint : XviD\n      Duration : 1h 54mn\n      Bit rate : 1 313 Kbps\n      Width : 720 pixels\n      Height : 400 pixels\n      Display aspect ratio : 16:9\n      Frame rate : 23.976 fps\n      Resolution : 24 bits\n      Colorimetry : 4:2:0\n      Scan type : Progressive\n      Bits/(Pixel*Frame) : 0.190\n      Stream size : 1.05 GiB (77%)\n      Writing library : XviD 64\n   Audio #1\n      ID : 1\n      Format : AC-3\n      Format/Info : Audio Coding 3\n      Codec ID : 2000\n      Duration : 1h 54mn\n      Bit rate mode : Constant\n      Bit rate : 384 Kbps\n      Channel(s) : 2 channels\n      Channel positions : L R\n      Sampling rate : 48.0 KHz\n      Stream size : 316 MiB (23%)\n      Alignment : Split accross interleaves\n      Interleave, duration : 96 ms (2.30 video frames)\n      Interleave, preload duration : 96 ms\n      Language : Japanese","torrent":{"xt":"urn:btih:63be6ee51acead5aa9a52c4467fac44b7ea1d094","amp;dn":"Kaneto+Shind%26ocirc%3B+-++Postcard+%282010%29","amp;tr":["udp%3A%2F%2Ftracker.openbittorrent.com%3A80","udp%3A%2F%2Fopen.demonii.com%3A1337","udp%3A%2F%2Ftracker.coppersurfer.tk%3A6969","udp%3A%2F%2Fexodus.desync.com%3A6969"],"infoHash":"63be6ee51acead5aa9a52c4467fac44b7ea1d094","infoHashBuffer":{"type":"Buffer","data":[99,190,110,229,26,206,173,90,169,165,44,68,103,250,196,75,126,161,208,148]},"announce":[],"urlList":[]}}